# xmcd
#
# Track frame offsets:
#	150
#	14092
#	27656
#	43461
#	56216
#	75264
#
# Disc length: 1039 seconds
#
# Revision: 0
# Processed by: cddbd v1.5.1PL0 Copyright (c) Steve Scherf et al.
# Submitted via: dBpowerAMP V4.0
#
DISCID=50040d06
DTITLE=Keith MacIntyre - Keith's Kountry Klassics
DYEAR=1900
DGENRE=Comedy
TTITLE0=How Can I Miss You (If You Won't Leave Me Alone)
TTITLE1=Good Enough For Now
TTITLE2=Pony Love
TTITLE3=Feves Au Lard
TTITLE4=Whiskey
TTITLE5=I Ride The Plains
EXTD=
EXTT0=
EXTT1=
EXTT2=
EXTT3=
EXTT4=
EXTT5=
PLAYORDER=
